<?xml version="1.0" encoding="UTF-8"?>
<svg version="1.1" xmlns="http://www.w3.org/2000/svg" width="1024" height="1024">
<path d="M0 0 C337.92 0 675.84 0 1024 0 C1024 337.92 1024 675.84 1024 1024 C686.08 1024 348.16 1024 0 1024 C0 686.08 0 348.16 0 0 Z " fill="#000000" transform="translate(0,0)"/>
<path d="M0 0 C1.1653125 0.11827148 2.330625 0.23654297 3.53125 0.35839844 C63.83335324 6.63454425 122.31902962 26.27028795 174 58 C175.28922363 58.77923828 175.28922363 58.77923828 176.60449219 59.57421875 C187.61083671 66.23021256 197.94875202 73.46634882 208.03173828 81.44921875 C209.91327824 82.93167246 211.8101605 84.39120651 213.71484375 85.84375 C220.86226713 91.32171648 227.56471076 97.12486049 234.1171875 103.30078125 C236.37050026 105.41059035 238.64625314 107.44321657 241 109.4375 C248.98084379 116.35084239 256.51564381 124.01660459 263.34375 132.06640625 C265.25985577 134.30336935 267.25512856 136.45803578 269.25 138.625 C274.83677502 144.82622574 279.92256779 151.38178273 285 158 C285.73355713 158.94818604 285.73355713 158.94818604 286.48193359 159.91552734 C313.95674662 195.48327975 334.27754558 236.01688481 349.89355469 278.02490234 C350.64467703 280.04457949 351.40611346 282.06044482 352.17675781 284.07275391 C352.54381836 285.04519043 352.91087891 286.01762695 353.2890625 287.01953125 C353.6185791 287.88296143 353.9480957 288.7463916 354.28759766 289.63598633 C355 292 355 292 355 296 C325.93474724 296.73414853 296.8859214 297.09612061 267.8125 297.0625 C266.69416149 297.06121597 266.69416149 297.06121597 265.55323029 297.05990601 C256.36879283 297.04857215 247.18440364 297.02776551 238 297 C238 290.73 238 284.46 238 278 C249.22 278 260.44 278 272 278 C259.40712981 250.2088382 243.63570585 223.44180499 224 200 C223.48050781 199.37899414 222.96101562 198.75798828 222.42578125 198.11816406 C215.62381583 190.03578116 208.591122 182.35055827 201 175 C198.55011266 172.56547246 196.11595078 170.11951241 193.7109375 167.640625 C187.81809193 161.60981984 181.64176522 156.18429391 175 151 C174.37174316 150.5059668 173.74348633 150.01193359 173.09619141 149.50292969 C157.47526411 137.24932093 141.30657544 126.71696832 124 117 C123.36126953 116.63664551 122.72253906 116.27329102 122.06445312 115.89892578 C86.89317465 95.95516879 47.67426486 84.56998381 8 78 C6.97084473 77.82033691 5.94168945 77.64067383 4.88134766 77.45556641 C-10.52256277 74.8846938 -26.04774541 74.76017941 -41.625 74.75 C-42.56309509 74.74932526 -43.50119019 74.74865051 -44.4677124 74.74795532 C-69.79237218 74.77667417 -94.28986317 77.24733201 -119 83 C-119.9379541 83.21495117 -120.8759082 83.42990234 -121.84228516 83.65136719 C-144.88609019 89.0238382 -167.54296143 96.66348038 -188.85644531 106.96484375 C-190.86203779 107.93337588 -192.87814479 108.87513373 -194.8984375 109.8125 C-218.20596554 120.83333115 -240.39667228 135.26957375 -260 152 C-261.07252254 152.89890796 -262.14546144 153.7973193 -263.21875 154.6953125 C-269.77803775 160.21557917 -276.16263534 165.90846418 -282.4375 171.75 C-283.0874292 172.35150879 -283.7373584 172.95301758 -284.40698242 173.57275391 C-288.32198826 177.25101976 -291.92332866 181.09315586 -295.42114258 185.16943359 C-297.42233456 187.48966515 -299.52453543 189.70714804 -301.625 191.9375 C-307.63251892 198.53577342 -312.99374501 205.58472681 -318.31787109 212.73974609 C-319.43104277 214.23549985 -320.54850066 215.7280741 -321.67041016 217.21728516 C-330.03875543 228.33983163 -337.34867368 239.77562611 -344 252 C-344.48855469 252.89348145 -344.97710937 253.78696289 -345.48046875 254.70751953 C-365.82308399 292.14394547 -379.95886418 331.92375525 -387 374 C-387.16371094 374.94085449 -387.32742188 375.88170898 -387.49609375 376.85107422 C-392.86030122 408.99752829 -391.737625 443.84055028 -387 476 C-386.88785156 476.80276367 -386.77570313 477.60552734 -386.66015625 478.43261719 C-385.96091082 483.32949338 -385.05486394 488.16701143 -384 493 C-383.80035645 493.9163623 -383.60071289 494.83272461 -383.39501953 495.77685547 C-380.06630531 510.78628656 -376.04039105 525.47497327 -371 540 C-370.70399902 540.85480957 -370.40799805 541.70961914 -370.10302734 542.59033203 C-359.08579878 573.91592572 -343.01609837 603.51835342 -323 630 C-322.22011719 631.04671875 -321.44023437 632.0934375 -320.63671875 633.171875 C-315.88628332 639.49429642 -310.92133822 645.48122362 -305.51953125 651.26953125 C-303.52981417 653.42582929 -301.60068553 655.6084626 -299.68359375 657.828125 C-296.0253225 662.02273894 -292.18721117 666.00508329 -288.25 669.9375 C-287.1995752 670.98671631 -287.1995752 670.98671631 -286.12792969 672.05712891 C-281.48366503 676.64704352 -276.75104574 680.91121594 -271.61328125 684.9453125 C-268.82068253 687.14098803 -266.1356131 689.43944077 -263.4375 691.75 C-197.4816989 746.64224737 -107.26080649 775.69773309 -21.79116821 767.943573 C19.59181114 764.01904227 59.34384021 753.71228984 97 736 C98.26215332 735.4131543 98.26215332 735.4131543 99.54980469 734.81445312 C123.70018539 723.4971987 146.45306623 709.00076246 167 692 C168.28197266 690.97712891 168.28197266 690.97712891 169.58984375 689.93359375 C186.2544702 676.56841988 202.85191013 661.41187245 216.01171875 644.546875 C218.19719453 641.74740504 220.49979886 639.07011628 222.8125 636.375 C260.43621157 591.14526031 284.66576299 533.91148283 294.10107422 476.09887695 C294.90536633 471.18926734 294.90536633 471.18926734 296 469 C269.6 469 243.2 469 216 469 C216 444.58 216 420.16 216 395 C231.68746892 394.82978139 247.37494241 394.66162285 263.0625 394.5 C264.79128199 394.48218412 264.79128199 394.48218412 266.55498886 394.46400833 C301.70476262 394.10342109 336.84825152 393.83812514 372 394 C372.86946675 456.50992758 372.86946675 456.50992758 368 485 C367.79681152 486.20575684 367.59362305 487.41151367 367.38427734 488.65380859 C365.1571061 501.56092103 362.50077715 514.37512783 359 527 C358.76587402 527.85674316 358.53174805 528.71348633 358.29052734 529.59619141 C350.13850893 559.21433982 339.22161646 587.76786911 325.02001953 615.02929688 C323.92154445 617.15157808 322.84936738 619.28612014 321.77734375 621.421875 C302.8934952 658.6351982 276.75588056 692.80910452 247 722 C244.33272947 724.65393418 241.68201866 727.32224837 239.0546875 730.015625 C233.2001766 735.98948456 227.28737572 741.63968172 220.71875 746.83984375 C217.89954419 749.07981618 215.17312201 751.40893886 212.4375 753.75 C204.61530461 760.27525107 196.33757225 766.15566276 188 772 C187.37786621 772.43812012 186.75573242 772.87624023 186.11474609 773.32763672 C157.43662299 793.39356743 125.84242942 809.07403227 93 821 C91.97455078 821.37350586 90.94910156 821.74701172 89.89257812 822.13183594 C1.29269698 853.98052451 -98.27678882 852.75484789 -195 819 C-196.01271973 818.63793457 -197.02543945 818.27586914 -198.06884766 817.90283203 C-241.06916741 802.23234719 -281.10327836 777.39188668 -316 748 C-316.54366211 747.54657227 -317.08732422 747.09314453 -317.64746094 746.62597656 C-325.84809642 739.77915486 -333.55521569 732.66268043 -341 725 C-343.57976351 722.40377867 -346.17611079 719.82831658 -348.796875 717.2734375 C-354.56397934 711.6314099 -359.91796543 705.88157031 -364.94140625 699.55078125 C-366.77992293 697.27269512 -368.69172264 695.13923704 -370.6875 693 C-399.25884032 661.0906219 -421.34031127 620.63196412 -437 581 C-437.34595215 580.14132324 -437.6919043 579.28264648 -438.04833984 578.39794922 C-449.12215431 550.78048191 -456.96209372 522.30667153 -462 493 C-462.16580566 492.05447266 -462.33161133 491.10894531 -462.50244141 490.13476562 C-476.58598566 408.02361826 -462.08990813 321.24326417 -427.04394531 246.24804688 C-426.0491118 244.10575807 -425.07977679 241.95380686 -424.1171875 239.796875 C-413.16263697 215.51073444 -398.92867171 192.33960018 -383 171 C-382.49855469 170.32727051 -381.99710937 169.65454102 -381.48046875 168.96142578 C-371.57968238 155.7332766 -361.15719202 143.16937604 -349.875 131.1015625 C-347.98941023 129.08074612 -346.13627141 127.03770984 -344.3125 124.9609375 C-343.508125 124.04570312 -342.70375 123.13046875 -341.875 122.1875 C-340.81925781 120.97126953 -340.81925781 120.97126953 -339.7421875 119.73046875 C-338 118 -338 118 -336 118 C-336 117.34 -336 116.68 -336 116 C-334.70703125 114.6953125 -334.70703125 114.6953125 -332.8125 113.125 C-329.62266609 110.42289113 -326.53851473 107.64733424 -323.49975586 104.77905273 C-316.91654771 98.58361582 -310.05409878 92.91568076 -302.86865234 87.43603516 C-300.94585598 85.95839102 -299.04426832 84.45636568 -297.14453125 82.94921875 C-217.09828468 19.89190358 -110.74399065 -9.78611293 0 0 Z " fill="#007B54" transform="translate(560,79)"/>
<path d="M0 0 C4.19658012 1.75816823 7.45098918 4.6469557 10.9375 7.5 C12.29348819 8.597322 13.65027167 9.69366191 15.0078125 10.7890625 C15.68360352 11.3346582 16.35939453 11.88025391 17.05566406 12.44238281 C20.29418788 15.03678034 23.58815758 17.55575481 26.88378906 20.07714844 C31.50238175 23.61260754 36.09782562 27.17708782 40.6875 30.75 C41.44546875 31.33990723 42.2034375 31.92981445 42.984375 32.53759766 C46.10744701 34.9686253 49.22997762 37.40034787 52.35253906 39.83203125 C54.67229048 41.63832373 56.99229029 43.44429624 59.3125 45.25 C60.0645874 45.83531494 60.8166748 46.42062988 61.59155273 47.02368164 C65.96667874 50.42613067 70.35222902 53.81438665 74.75 57.1875 C79.66974834 60.96483487 84.5551051 64.7829314 89.42773438 68.62060547 C96.48917986 74.17908209 103.58877852 79.68840666 110.68554688 85.20166016 C115.20603619 88.71409943 119.72437826 92.22930119 124.24243164 95.74487305 C128.02766311 98.68985637 131.81474492 101.63240125 135.60546875 104.5703125 C145.13858552 111.96338311 154.60403408 119.43333718 164 127 C162.66000502 130.006818 161.20154709 131.99762609 158.8125 134.25 C156.30396664 136.6234133 154.00692173 139.11211825 151.74609375 141.71875 C148.02497611 146.00448167 144.15675322 150.13382044 140.25 154.25 C131.00967916 164.02834322 121.89608649 173.90587321 113 184 C108.19008751 182.46337389 104.88621584 179.72978393 101.0625 176.5625 C99.71925988 175.46812387 98.37549837 174.37438743 97.03125 173.28125 C96.35578125 172.72953125 95.6803125 172.1778125 94.984375 171.609375 C92.04040292 169.2217441 89.05231828 166.89225642 86.0625 164.5625 C81.05159268 160.64600204 76.10875749 156.65339391 71.1875 152.625 C65.64712959 148.09129631 60.02152038 143.69412631 54.3125 139.375 C48.70554747 135.13173008 43.27346001 130.75854553 37.95239258 126.16357422 C33.59732833 122.43335822 29.07487074 118.95551988 24.5 115.5 C18.06488688 110.63902121 11.84430423 105.60293046 5.734375 100.33984375 C4.83203125 99.56769531 3.9296875 98.79554688 3 98 C2.13890625 97.21753906 1.2778125 96.43507813 0.390625 95.62890625 C-1.78762945 93.75865598 -1.78762945 93.75865598 -3.91625977 94.24072266 C-6.18594706 95.06775575 -7.79094117 96.0825756 -9.73046875 97.51953125 C-10.44203125 98.04095703 -11.15359375 98.56238281 -11.88671875 99.09960938 C-12.64597656 99.66486328 -13.40523437 100.23011719 -14.1875 100.8125 C-15.81578089 102.00736308 -17.44470193 103.20135424 -19.07421875 104.39453125 C-20.31051025 105.30259521 -20.31051025 105.30259521 -21.57177734 106.22900391 C-25.18378671 108.86338114 -28.83972288 111.43333177 -32.5 114 C-41.39165271 120.2530393 -50.19835331 126.62117218 -59 133 C-69.27045384 140.44331816 -79.56465528 147.84825671 -89.9375 155.1484375 C-90.54127661 155.59379003 -91.14505322 156.03914255 -91.76712608 156.49799061 C-94 158 -94 158 -96.53762245 159.1967802 C-99.64909675 160.84119384 -101.6968118 162.32020707 -104 165 C-105.54245666 170.78678451 -105.39013453 176.47942377 -105.32568359 182.43481445 C-105.3425201 184.22259794 -105.36357492 186.01034592 -105.38851929 187.79803467 C-105.44257824 192.6438093 -105.43322669 197.48752309 -105.40911818 202.33346581 C-105.39483893 206.38409583 -105.41186542 210.43434657 -105.42892897 214.48494691 C-105.46882287 224.04524451 -105.45771223 233.60454189 -105.41357422 243.16479492 C-105.36887455 253.01376076 -105.40400499 262.86010292 -105.47967279 272.70882064 C-105.54223336 281.17634197 -105.55794481 289.64305304 -105.53576529 298.1107766 C-105.522815 303.16301476 -105.52667271 308.21374047 -105.5744133 313.26580238 C-105.61705486 318.02034381 -105.60080515 322.77120128 -105.54022598 327.5255127 C-105.52761424 329.26446662 -105.53519173 331.00370928 -105.56504822 332.74245262 C-105.91519999 342.69155991 -105.91519999 342.69155991 -101.418293 351.17549706 C-98.5087428 353.80529458 -95.31201894 355.90366426 -92 358 C-90.17740574 359.36159149 -88.36328866 360.73469735 -86.5625 362.125 C-85.08523438 363.21941406 -85.08523438 363.21941406 -83.578125 364.3359375 C-78.9562353 367.76325478 -74.38738403 371.26034774 -69.8125 374.75 C-68.4519751 375.78713135 -68.4519751 375.78713135 -67.06396484 376.84521484 C-62.84931158 380.05927237 -58.63704495 383.2763972 -54.4296875 386.5 C-53.01564515 387.58335964 -51.60158316 388.66669363 -50.1875 389.75 C-49.49881836 390.27762939 -48.81013672 390.80525879 -48.10058594 391.34887695 C-42.80192741 395.40193657 -37.46650298 399.40402053 -32.11499023 403.38696289 C-28.41522541 406.15158706 -24.75997667 408.9637879 -21.13671875 411.828125 C-20.32259521 412.47015869 -19.50847168 413.11219238 -18.66967773 413.77368164 C-17.0877622 415.0248809 -15.51024322 416.28166428 -13.93774414 417.54467773 C-13.22094482 418.11130127 -12.50414551 418.6779248 -11.765625 419.26171875 C-11.13430664 419.76662842 -10.50298828 420.27153809 -9.85253906 420.79174805 C-7.80448567 422.12751719 -6.44167254 422.78817082 -4 423 C-1.99512977 422.07966891 -1.99512977 422.07966891 -0.0859375 420.52734375 C0.6656665 419.9645874 1.41727051 419.40183105 2.19165039 418.82202148 C2.99465576 418.20012939 3.79766113 417.5782373 4.625 416.9375 C5.88654907 415.98435913 5.88654907 415.98435913 7.17358398 415.01196289 C13.59886328 410.13879369 19.94818949 405.16509013 26.29296875 400.18774414 C32.2197493 395.55550405 38.27702037 391.12947412 44.39306641 386.75146484 C49.94714355 382.77356106 55.42787199 378.70903972 60.88232422 374.59594727 C66.95037409 370.02426257 73.0669732 365.52009815 79.18823242 361.02001953 C84.60472184 357.03548839 89.99542081 353.01992888 95.359375 348.96484375 C98 347 98 347 99.85449219 346.13500977 C102.11044595 344.95243491 103.43370779 344.02594162 105 342 C106.01552599 337.34109954 105.88532153 332.81083591 105.75 328.0625 C105.7603125 326.79986328 105.770625 325.53722656 105.78125 324.23632812 C105.84618894 316.70469665 105.84618894 316.70469665 102.578125 310.18359375 C99.32106132 307.42495951 97.88673179 306.87539086 93.73773193 306.86869812 C92.84333908 306.86468994 91.94894623 306.86068176 91.02745056 306.85655212 C89.55158226 306.8573452 89.55158226 306.8573452 88.04589844 306.8581543 C87.01161209 306.85467987 85.97732574 306.85120544 84.91169739 306.84762573 C82.65979299 306.84026013 80.4078813 306.83491905 78.15596771 306.83133507 C74.59197564 306.82418384 71.0281224 306.80852698 67.46417236 306.78999329 C57.32883619 306.73746263 47.19357483 306.68954405 37.05810547 306.67407227 C30.86352931 306.66399489 24.66930024 306.63467412 18.47486115 306.59275246 C16.11300532 306.58043213 13.75110047 306.57532307 11.38921356 306.57755089 C8.0829919 306.57990181 4.77776676 306.55775122 1.47167969 306.5300293 C0.49586441 306.53663071 -0.47995087 306.54323212 -1.4853363 306.55003357 C-7.11077125 306.47259278 -10.68901661 305.98566781 -15 302 C-23.95544527 284.08910946 -18 262.02498439 -18 242 C47.67 242 113.34 242 181 242 C181.12375 263.759375 181.2475 285.51875 181.375 307.9375 C181.45693604 318.22989868 181.45693604 318.22989868 181.54052734 328.73022461 C181.56762695 337.13195801 181.56762695 337.13195801 181.57266235 341.06959534 C181.58185662 343.8107021 181.60064712 346.55013024 181.63345337 349.29090881 C181.68257933 353.45068078 181.68343261 357.60922575 181.68115234 361.76928711 C181.70274099 362.98289634 181.72432964 364.19650557 181.74657249 365.44689083 C181.6794712 374.61406136 178.98396745 379.51608369 173.0078125 386.2421875 C167.12789398 391.34136995 160.81095731 395.67099413 154.37109375 400.01953125 C149.89273149 403.05241628 145.50239306 406.19866576 141.125 409.375 C140.37549072 409.91858154 139.62598145 410.46216309 138.85375977 411.0222168 C137.32955903 412.12857826 135.80571536 413.23543182 134.28222656 414.34277344 C130.52705852 417.06956854 126.76308539 419.78414785 123 422.5 C121.49867647 423.58460573 119.99737439 424.66924116 118.49609375 425.75390625 C115.51090892 427.91005299 112.52378612 430.06347504 109.53515625 432.21484375 C99.43733148 439.48779349 89.39946179 446.83836425 79.39111328 454.23388672 C74.64000853 457.74312623 69.88318709 461.24461276 65.12744141 464.74755859 C61.15468511 467.67420749 57.18332154 470.60270774 53.21484375 473.53515625 C45.50460378 479.22964721 37.77828386 484.89871612 30 490.5 C23.62258297 495.09362757 17.26853825 499.71762725 10.9375 504.375 C10.17630859 504.93380859 9.41511719 505.49261719 8.63085938 506.06835938 C3.35197369 509.95928213 -1.84098297 513.95165227 -7 518 C-10.73478802 516.23768882 -13.60386986 513.89688004 -16.6875 511.1875 C-21.73865721 506.82757668 -26.92319951 502.70507309 -32.25 498.6875 C-38.9454563 493.63052713 -45.45159091 488.38614049 -51.90307617 483.02246094 C-57.07283736 478.73437837 -62.34423963 474.62404253 -67.69140625 470.55859375 C-71.52618307 467.61925888 -75.26043342 464.55892026 -79 461.5 C-84.86001682 456.70961905 -90.7921255 452.03685205 -96.80859375 447.4453125 C-100.12631099 444.91141233 -103.40887955 442.33418719 -106.6875 439.75 C-112.02732462 435.5439327 -117.38320759 431.35910572 -122.75 427.1875 C-123.88199829 426.30759399 -123.88199829 426.30759399 -125.03686523 425.40991211 C-127.3577045 423.60634319 -129.67880247 421.8031078 -132 420 C-152.47887288 404.09199783 -152.47887288 404.09199783 -160.875 397.4609375 C-162.86642261 395.8926922 -164.86566215 394.33428699 -166.875 392.7890625 C-174.77423229 386.65305171 -180.14040674 382.14314789 -182 372 C-182.26885925 368.7754935 -182.27895752 365.57002315 -182.26742554 362.33560181 C-182.27195665 361.39252147 -182.27648776 360.44944113 -182.28115618 359.47778261 C-182.29376541 356.33360793 -182.29218206 353.18960724 -182.29052734 350.04541016 C-182.29651469 347.78461994 -182.30332071 345.52383176 -182.31088257 343.26304626 C-182.32852703 337.13286781 -182.33323725 331.00274521 -182.33451414 324.87254381 C-182.33593698 321.04046455 -182.34020907 317.20839944 -182.34550858 313.3763237 C-182.36304876 300.69126584 -182.37234947 288.00624868 -182.37084763 275.32118197 C-182.37076772 274.63833645 -182.3706878 273.95549093 -182.37060547 273.25195312 C-182.37052371 272.56826823 -182.37044195 271.88458333 -182.37035771 271.18018071 C-182.36954482 260.10052694 -182.38868678 249.0210091 -182.4168822 237.94139464 C-182.4456453 226.54829401 -182.45905481 215.15528025 -182.45769465 203.76213491 C-182.45718517 197.37237353 -182.46286092 190.98276612 -182.48405075 184.59303665 C-182.5034379 178.58308214 -182.50355404 172.57342844 -182.48901749 166.56346321 C-182.48692903 164.36167396 -182.49163241 162.15986586 -182.5037384 159.9581089 C-182.51923112 156.94450992 -182.50985579 153.93194308 -182.49447632 150.91836548 C-182.50476344 150.05414179 -182.51505057 149.18991811 -182.52564943 148.29950583 C-182.40891871 137.89707409 -178.32508667 130.18831119 -171 123 C-170.46117187 122.46246094 -169.92234375 121.92492187 -169.3671875 121.37109375 C-162.93306717 115.38418806 -155.46621009 110.57861917 -148.265625 105.57617188 C-144.68724756 103.08673171 -141.1242259 100.57568237 -137.5625 98.0625 C-136.86310303 97.56975586 -136.16370605 97.07701172 -135.44311523 96.56933594 C-130.30586555 92.94276553 -125.21191297 89.25920417 -120.125 85.5625 C-113.92462359 81.0590758 -107.65285332 76.67893295 -101.3125 72.375 C-94.9654592 68.066153 -88.7183903 63.65629367 -82.55517578 59.08886719 C-77.27564253 55.18113666 -71.91754911 51.39279734 -66.54199219 47.61865234 C-61.36794969 43.98047122 -56.24054611 40.28233956 -51.125 36.5625 C-45.0088164 32.11936207 -38.82126576 27.80214301 -32.5625 23.5625 C-21.46357071 16.04000751 -10.72247045 8.04594879 0 0 Z " fill="#007B54" transform="translate(511,270)"/>
<path d="M0 0 C0.66 0.33 1.32 0.66 2 1 C-4.93 7.93 -11.86 14.86 -19 22 C-19.66 21.67 -20.32 21.34 -21 21 C-20.04882866 19.8274869 -19.08882991 18.66212985 -18.125 17.5 C-17.59132812 16.8503125 -17.05765625 16.200625 -16.5078125 15.53125 C-15.76144531 14.77328125 -15.76144531 14.77328125 -15 14 C-14.34 14 -13.68 14 -13 14 C-13 13.34 -13 12.68 -13 12 C-11.42578125 10.44921875 -11.42578125 10.44921875 -9.3125 8.6875 C-6.04699036 5.91500692 -2.98084015 3.07399141 0 0 Z " fill="#00865C" transform="translate(237,183)"/>
<path d="M0 0 C0.66 0.33 1.32 0.66 2 1 C-0.37073409 3.40008604 -2.74735022 5.79426638 -5.125 8.1875 C-5.79015625 8.86103516 -6.4553125 9.53457031 -7.140625 10.22851562 C-10.94087153 14.04739081 -14.79699551 17.62843098 -19 21 C-19.66 20.67 -20.32 20.34 -21 20 C-16.80909399 15.69122476 -12.48671202 11.6338971 -7.93359375 7.7109375 C-5.16155106 5.25809972 -2.58428299 2.64889006 0 0 Z " fill="#00895E" transform="translate(755,746)"/>
</svg>
